<mxfile host="65bd71144e">
    <diagram id="2GL_DJMp6nLppSpwsetA" name="第 1 页">
        <mxGraphModel dx="1106" dy="513" grid="1" gridSize="10" guides="1" tooltips="1" connect="1" arrows="1" fold="1" page="1" pageScale="1" pageWidth="827" pageHeight="1169" background="#ffffff" math="0" shadow="0">
            <root>
                <mxCell id="0"/>
                <mxCell id="1" parent="0"/>
                <mxCell id="2" value="" style="endArrow=none;dashed=1;html=1;strokeColor=#000000;" parent="1" edge="1">
                    <mxGeometry width="50" height="50" relative="1" as="geometry">
                        <mxPoint x="190" y="90" as="sourcePoint"/>
                        <mxPoint x="610" y="90" as="targetPoint"/>
                    </mxGeometry>
                </mxCell>
                <mxCell id="4" value="&lt;font color=&quot;#000000&quot;&gt;浏览器&lt;/font&gt;" style="text;html=1;strokeColor=none;fillColor=none;align=center;verticalAlign=middle;whiteSpace=wrap;rounded=0;" parent="1" vertex="1">
                    <mxGeometry x="190" y="50" width="60" height="30" as="geometry"/>
                </mxCell>
                <mxCell id="5" value="HTML/JS/CSS(单页面应用，各模块按需加载)" style="rounded=1;whiteSpace=wrap;html=1;fontColor=#000000;fillColor=#FFFFFF;strokeColor=#000000;" parent="1" vertex="1">
                    <mxGeometry x="250" y="50" width="340" height="30" as="geometry"/>
                </mxCell>
                <mxCell id="6" value="生成各页面JS模块" style="text;html=1;strokeColor=none;fillColor=none;align=center;verticalAlign=middle;whiteSpace=wrap;rounded=0;fontColor=#000000;" parent="1" vertex="1">
                    <mxGeometry x="190" y="100" width="60" height="30" as="geometry"/>
                </mxCell>
                <mxCell id="7" value="" style="rounded=1;whiteSpace=wrap;html=1;strokeColor=#000000;fontColor=#000000;fillColor=#FFFFFF;" parent="1" vertex="1">
                    <mxGeometry x="250" y="100" width="340" height="30" as="geometry"/>
                </mxCell>
                <mxCell id="8" value="Home" style="rounded=1;whiteSpace=wrap;html=1;strokeColor=#000000;fontColor=#000000;fillColor=#FFFFFF;" parent="1" vertex="1">
                    <mxGeometry x="260" y="105" width="60" height="20" as="geometry"/>
                </mxCell>
                <mxCell id="9" value="Colocalization" style="rounded=1;whiteSpace=wrap;html=1;strokeColor=#000000;fontColor=#000000;fillColor=#FFFFFF;" parent="1" vertex="1">
                    <mxGeometry x="330" y="105" width="80" height="20" as="geometry"/>
                </mxCell>
                <mxCell id="10" value="&lt;span style=&quot;color: rgb(48, 49, 51); font-family: &amp;quot;Trebuchet MS&amp;quot;, sans-serif; background-color: rgb(255, 255, 255);&quot;&gt;&lt;font style=&quot;font-size: 13px;&quot;&gt;Finemapping&lt;/font&gt;&lt;/span&gt;" style="rounded=1;whiteSpace=wrap;html=1;strokeColor=#000000;fontColor=#000000;fillColor=#FFFFFF;" parent="1" vertex="1">
                    <mxGeometry x="420" y="105" width="90" height="20" as="geometry"/>
                </mxCell>
                <mxCell id="11" value="&lt;span style=&quot;color: rgb(48, 49, 51); font-family: &amp;quot;Trebuchet MS&amp;quot;, sans-serif; background-color: rgb(255, 255, 255);&quot;&gt;&lt;font style=&quot;font-size: 12px;&quot;&gt;TWAS&lt;/font&gt;&lt;/span&gt;" style="rounded=1;whiteSpace=wrap;html=1;strokeColor=#000000;fontSize=13;fontColor=#000000;fillColor=#FFFFFF;" parent="1" vertex="1">
                    <mxGeometry x="520" y="105" width="40" height="20" as="geometry"/>
                </mxCell>
                <mxCell id="13" value="...&lt;br&gt;" style="text;html=1;strokeColor=none;fillColor=none;align=center;verticalAlign=middle;whiteSpace=wrap;rounded=0;fontSize=12;fontColor=#000000;" parent="1" vertex="1">
                    <mxGeometry x="560" y="105" width="30" height="20" as="geometry"/>
                </mxCell>
                <mxCell id="14" value="" style="endArrow=none;dashed=1;html=1;strokeColor=#000000;" parent="1" edge="1">
                    <mxGeometry width="50" height="50" relative="1" as="geometry">
                        <mxPoint x="190" y="140" as="sourcePoint"/>
                        <mxPoint x="610" y="140" as="targetPoint"/>
                    </mxGeometry>
                </mxCell>
                <mxCell id="15" value="Vite" style="text;html=1;strokeColor=none;fillColor=none;align=center;verticalAlign=middle;whiteSpace=wrap;rounded=0;fontSize=12;fontColor=#000000;" parent="1" vertex="1">
                    <mxGeometry x="190" y="157.5" width="60" height="30" as="geometry"/>
                </mxCell>
                <mxCell id="16" value="main.js" style="rounded=1;whiteSpace=wrap;html=1;strokeColor=#000000;fontSize=12;fontColor=#000000;fillColor=#FFFFFF;" parent="1" vertex="1">
                    <mxGeometry x="250" y="157.5" width="50" height="25" as="geometry"/>
                </mxCell>
                <mxCell id="17" value="" style="endArrow=classic;html=1;strokeColor=#000000;fontSize=12;fontColor=#000000;exitX=1;exitY=0.5;exitDx=0;exitDy=0;" parent="1" source="16" edge="1">
                    <mxGeometry width="50" height="50" relative="1" as="geometry">
                        <mxPoint x="310" y="169.57999999999998" as="sourcePoint"/>
                        <mxPoint x="371" y="169.57999999999998" as="targetPoint"/>
                    </mxGeometry>
                </mxCell>
                <mxCell id="18" value="" style="rounded=1;whiteSpace=wrap;html=1;strokeColor=#000000;fontSize=12;fontColor=#000000;fillColor=#FFFFFF;" parent="1" vertex="1">
                    <mxGeometry x="370" y="150" width="220" height="40" as="geometry"/>
                </mxCell>
                <mxCell id="19" value="dev" style="rounded=1;whiteSpace=wrap;html=1;strokeColor=#000000;fontSize=12;fontColor=#000000;fillColor=#FFFFFF;" parent="1" vertex="1">
                    <mxGeometry x="387.5" y="150" width="65" height="27.5" as="geometry"/>
                </mxCell>
                <mxCell id="20" value="build" style="rounded=1;whiteSpace=wrap;html=1;strokeColor=#000000;fontSize=12;fontColor=#000000;fillColor=#FFFFFF;" parent="1" vertex="1">
                    <mxGeometry x="517.5" y="150" width="60" height="20" as="geometry"/>
                </mxCell>
                <mxCell id="21" value="Vite" style="rounded=1;whiteSpace=wrap;html=1;strokeColor=#000000;fontSize=12;fontColor=#000000;fillColor=#FFFFFF;" parent="1" vertex="1">
                    <mxGeometry x="387.5" y="170" width="190" height="20" as="geometry"/>
                </mxCell>
                <mxCell id="22" value="" style="endArrow=classic;html=1;strokeColor=#000000;fontSize=12;fontColor=#000000;exitX=0.457;exitY=0.029;exitDx=0;exitDy=0;exitPerimeter=0;" parent="1" edge="1">
                    <mxGeometry width="50" height="50" relative="1" as="geometry">
                        <mxPoint x="470.53999999999996" y="149.16000000000008" as="sourcePoint"/>
                        <mxPoint x="470" y="131" as="targetPoint"/>
                    </mxGeometry>
                </mxCell>
                <mxCell id="23" value="" style="endArrow=none;dashed=1;html=1;strokeColor=#000000;" parent="1" edge="1">
                    <mxGeometry width="50" height="50" relative="1" as="geometry">
                        <mxPoint x="190" y="200" as="sourcePoint"/>
                        <mxPoint x="610" y="200" as="targetPoint"/>
                    </mxGeometry>
                </mxCell>
                <mxCell id="24" value="页面容器" style="text;html=1;strokeColor=none;fillColor=none;align=center;verticalAlign=middle;whiteSpace=wrap;rounded=0;fontSize=12;fontColor=#000000;" parent="1" vertex="1">
                    <mxGeometry x="190" y="245" width="60" height="30" as="geometry"/>
                </mxCell>
                <mxCell id="25" value="" style="rounded=1;whiteSpace=wrap;html=1;strokeColor=#000000;fontSize=12;fontColor=#000000;fillColor=#FFFFFF;" parent="1" vertex="1">
                    <mxGeometry x="250" y="210" width="270" height="180" as="geometry"/>
                </mxCell>
                <mxCell id="28" value="" style="rounded=0;whiteSpace=wrap;html=1;strokeColor=#000000;fontSize=12;fontColor=#000000;fillColor=#FFFFFF;" parent="1" vertex="1">
                    <mxGeometry x="260" y="230" width="80" height="140" as="geometry"/>
                </mxCell>
                <mxCell id="29" value="&lt;font style=&quot;font-size: 9px;&quot;&gt;Vue Component&lt;/font&gt;" style="text;html=1;strokeColor=none;fillColor=none;align=center;verticalAlign=middle;whiteSpace=wrap;rounded=0;fontSize=12;fontColor=#000000;" parent="1" vertex="1">
                    <mxGeometry x="237.5" y="225" width="115" height="30" as="geometry"/>
                </mxCell>
                <mxCell id="30" value="公共组件" style="rounded=0;whiteSpace=wrap;html=1;strokeColor=#000000;fontSize=9;fontColor=#000000;fillColor=#FFFFFF;" parent="1" vertex="1">
                    <mxGeometry x="265" y="250" width="60" height="20" as="geometry"/>
                </mxCell>
                <mxCell id="31" value="页面组件" style="rounded=0;whiteSpace=wrap;html=1;strokeColor=#000000;fontSize=9;fontColor=#000000;fillColor=#FFFFFF;" parent="1" vertex="1">
                    <mxGeometry x="265" y="280" width="60" height="20" as="geometry"/>
                </mxCell>
                <mxCell id="32" value="页面组件" style="rounded=0;whiteSpace=wrap;html=1;strokeColor=#000000;fontSize=9;fontColor=#000000;fillColor=#FFFFFF;" parent="1" vertex="1">
                    <mxGeometry x="265" y="340" width="60" height="20" as="geometry"/>
                </mxCell>
                <mxCell id="33" value="..." style="rounded=0;whiteSpace=wrap;html=1;strokeColor=#000000;fontSize=9;fontColor=#000000;fillColor=#FFFFFF;" parent="1" vertex="1">
                    <mxGeometry x="265" y="310" width="60" height="20" as="geometry"/>
                </mxCell>
                <mxCell id="34" value="" style="rounded=0;whiteSpace=wrap;html=1;strokeColor=#000000;fontSize=9;fontColor=#000000;fillColor=#FFFFFF;" parent="1" vertex="1">
                    <mxGeometry x="350" y="230" width="60" height="140" as="geometry"/>
                </mxCell>
                <mxCell id="35" value="Vue Router" style="text;html=1;strokeColor=none;fillColor=none;align=center;verticalAlign=middle;whiteSpace=wrap;rounded=0;fontSize=9;fontColor=#000000;" parent="1" vertex="1">
                    <mxGeometry x="350" y="225" width="60" height="30" as="geometry"/>
                </mxCell>
                <mxCell id="36" value="Home" style="rounded=0;whiteSpace=wrap;html=1;strokeColor=#000000;fontSize=9;fontColor=#000000;fillColor=#FFFFFF;" parent="1" vertex="1">
                    <mxGeometry x="356.25" y="250" width="47.5" height="20" as="geometry"/>
                </mxCell>
                <mxCell id="37" value="Colocalizaton" style="rounded=0;whiteSpace=wrap;html=1;strokeColor=#000000;fontSize=9;fontColor=#000000;fillColor=#FFFFFF;" parent="1" vertex="1">
                    <mxGeometry x="356.25" y="280" width="47.5" height="20" as="geometry"/>
                </mxCell>
                <mxCell id="38" value="路由配置" style="rounded=0;whiteSpace=wrap;html=1;strokeColor=#000000;fontSize=9;fontColor=#000000;fillColor=#FFFFFF;" parent="1" vertex="1">
                    <mxGeometry x="356.25" y="340" width="47.5" height="20" as="geometry"/>
                </mxCell>
                <mxCell id="39" value="..." style="rounded=0;whiteSpace=wrap;html=1;strokeColor=#000000;fontSize=9;fontColor=#000000;fillColor=#FFFFFF;" parent="1" vertex="1">
                    <mxGeometry x="356.25" y="310" width="47.5" height="20" as="geometry"/>
                </mxCell>
                <mxCell id="40" value="" style="rounded=0;whiteSpace=wrap;html=1;strokeColor=#000000;fontSize=9;fontColor=#000000;fillColor=#FFFFFF;" parent="1" vertex="1">
                    <mxGeometry x="435" y="230" width="60" height="140" as="geometry"/>
                </mxCell>
                <mxCell id="41" value="Pinia" style="text;html=1;strokeColor=none;fillColor=none;align=center;verticalAlign=middle;whiteSpace=wrap;rounded=0;fontSize=9;fontColor=#000000;" parent="1" vertex="1">
                    <mxGeometry x="435" y="225" width="60" height="30" as="geometry"/>
                </mxCell>
                <mxCell id="42" value="状态管理" style="text;html=1;strokeColor=none;fillColor=none;align=center;verticalAlign=middle;whiteSpace=wrap;rounded=0;fontSize=9;fontColor=#000000;" parent="1" vertex="1">
                    <mxGeometry x="435" y="240" width="60" height="30" as="geometry"/>
                </mxCell>
                <mxCell id="43" value="email" style="rounded=0;whiteSpace=wrap;html=1;strokeColor=#000000;fontSize=9;fontColor=#000000;fillColor=#FFFFFF;" parent="1" vertex="1">
                    <mxGeometry x="443.75" y="270" width="42.5" height="20" as="geometry"/>
                </mxCell>
                <mxCell id="45" value="files" style="rounded=0;whiteSpace=wrap;html=1;strokeColor=#000000;fontSize=9;fontColor=#000000;fillColor=#FFFFFF;" parent="1" vertex="1">
                    <mxGeometry x="443.75" y="300" width="42.5" height="20" as="geometry"/>
                </mxCell>
                <mxCell id="46" value="actions" style="rounded=0;whiteSpace=wrap;html=1;strokeColor=#000000;fontSize=9;fontColor=#000000;fillColor=#FFFFFF;" parent="1" vertex="1">
                    <mxGeometry x="443.75" y="330" width="42.5" height="20" as="geometry"/>
                </mxCell>
                <mxCell id="47" value="UI&lt;br&gt;组件库" style="rounded=1;whiteSpace=wrap;html=1;strokeColor=#000000;fontSize=9;fontColor=#000000;fillColor=#FFFFFF;" parent="1" vertex="1">
                    <mxGeometry x="540" y="210" width="50" height="180" as="geometry"/>
                </mxCell>
                <mxCell id="48" value="" style="endArrow=classic;html=1;strokeColor=#000000;fontSize=9;fontColor=#000000;" parent="1" edge="1">
                    <mxGeometry width="50" height="50" relative="1" as="geometry">
                        <mxPoint x="280" y="210" as="sourcePoint"/>
                        <mxPoint x="280" y="182.5" as="targetPoint"/>
                    </mxGeometry>
                </mxCell>
                <mxCell id="49" value="" style="endArrow=classic;html=1;strokeColor=#000000;fontSize=9;fontColor=#000000;" parent="1" edge="1">
                    <mxGeometry width="50" height="50" relative="1" as="geometry">
                        <mxPoint x="540" y="290" as="sourcePoint"/>
                        <mxPoint x="521" y="290" as="targetPoint"/>
                    </mxGeometry>
                </mxCell>
                <mxCell id="50" value="" style="endArrow=none;dashed=1;html=1;strokeColor=#000000;" parent="1" edge="1">
                    <mxGeometry width="50" height="50" relative="1" as="geometry">
                        <mxPoint x="190" y="400" as="sourcePoint"/>
                        <mxPoint x="610" y="400" as="targetPoint"/>
                    </mxGeometry>
                </mxCell>
                <mxCell id="52" value="util" style="text;html=1;strokeColor=none;fillColor=none;align=center;verticalAlign=middle;whiteSpace=wrap;rounded=0;fontSize=12;fontColor=#000000;" parent="1" vertex="1">
                    <mxGeometry x="190" y="420" width="60" height="30" as="geometry"/>
                </mxCell>
                <mxCell id="53" value="" style="rounded=1;whiteSpace=wrap;html=1;strokeColor=#000000;fontSize=9;fontColor=#000000;fillColor=#FFFFFF;" parent="1" vertex="1">
                    <mxGeometry x="250" y="410" width="340" height="50" as="geometry"/>
                </mxCell>
                <mxCell id="54" value="第三方库" style="rounded=0;whiteSpace=wrap;html=1;strokeColor=#000000;fontSize=9;fontColor=#000000;fillColor=#FFFFFF;" parent="1" vertex="1">
                    <mxGeometry x="265" y="422.5" width="50" height="25" as="geometry"/>
                </mxCell>
                <mxCell id="55" value="工具类&lt;span style=&quot;color: rgba(0, 0, 0, 0); font-family: monospace; font-size: 0px; text-align: start;&quot;&gt;%3CmxGraphModel%3E%3Croot%3E%3CmxCell%20id%3D%220%22%2F%3E%3CmxCell%20id%3D%221%22%20parent%3D%220%22%2F%3E%3CmxCell%20id%3D%222%22%20value%3D%22%E7%AC%AC%E4%B8%89%E6%96%B9%E5%BA%93%22%20style%3D%22rounded%3D0%3BwhiteSpace%3Dwrap%3Bhtml%3D1%3BstrokeColor%3D%23000000%3BfontSize%3D9%3BfontColor%3D%23000000%3BfillColor%3D%23FFFFFF%3B%22%20vertex%3D%221%22%20parent%3D%221%22%3E%3CmxGeometry%20x%3D%22265%22%20y%3D%22422.5%22%20width%3D%2250%22%20height%3D%2225%22%20as%3D%22geometry%22%2F%3E%3C%2FmxCell%3E%3C%2Froot%3E%3C%2FmxGraphModel%3E&lt;/span&gt;" style="rounded=0;whiteSpace=wrap;html=1;strokeColor=#000000;fontSize=9;fontColor=#000000;fillColor=#FFFFFF;" parent="1" vertex="1">
                    <mxGeometry x="325" y="422.5" width="50" height="25" as="geometry"/>
                </mxCell>
                <mxCell id="56" value="公共组件" style="rounded=0;whiteSpace=wrap;html=1;strokeColor=#000000;fontSize=9;fontColor=#000000;fillColor=#FFFFFF;" parent="1" vertex="1">
                    <mxGeometry x="385" y="422.5" width="50" height="25" as="geometry"/>
                </mxCell>
                <mxCell id="57" value="配置信息" style="rounded=0;whiteSpace=wrap;html=1;strokeColor=#000000;fontSize=9;fontColor=#000000;fillColor=#FFFFFF;" parent="1" vertex="1">
                    <mxGeometry x="445" y="422.5" width="50" height="25" as="geometry"/>
                </mxCell>
                <mxCell id="58" value="plugin" style="rounded=0;whiteSpace=wrap;html=1;strokeColor=#000000;fontSize=9;fontColor=#000000;fillColor=#FFFFFF;" parent="1" vertex="1">
                    <mxGeometry x="510" y="422.5" width="50" height="25" as="geometry"/>
                </mxCell>
                <mxCell id="59" value="" style="endArrow=none;dashed=1;html=1;strokeColor=#000000;" parent="1" edge="1">
                    <mxGeometry width="50" height="50" relative="1" as="geometry">
                        <mxPoint x="190" y="470" as="sourcePoint"/>
                        <mxPoint x="610" y="470" as="targetPoint"/>
                    </mxGeometry>
                </mxCell>
                <mxCell id="60" value="Service" style="text;html=1;strokeColor=none;fillColor=none;align=center;verticalAlign=middle;whiteSpace=wrap;rounded=0;fontSize=9;fontColor=#000000;" parent="1" vertex="1">
                    <mxGeometry x="190" y="480" width="60" height="30" as="geometry"/>
                </mxCell>
                <mxCell id="61" value="" style="rounded=1;whiteSpace=wrap;html=1;strokeColor=#000000;fontSize=9;fontColor=#000000;fillColor=#FFFFFF;" parent="1" vertex="1">
                    <mxGeometry x="250" y="480" width="340" height="50" as="geometry"/>
                </mxCell>
                <mxCell id="62" value="Data Filter" style="rounded=0;whiteSpace=wrap;html=1;strokeColor=#000000;fontSize=9;fontColor=#000000;fillColor=#FFFFFF;" parent="1" vertex="1">
                    <mxGeometry x="315" y="492.5" width="50" height="25" as="geometry"/>
                </mxCell>
                <mxCell id="63" value="中间件" style="rounded=0;whiteSpace=wrap;html=1;strokeColor=#000000;fontSize=9;fontColor=#000000;fillColor=#FFFFFF;" parent="1" vertex="1">
                    <mxGeometry x="420" y="492.5" width="50" height="25" as="geometry"/>
                </mxCell>
                <mxCell id="67" value="" style="endArrow=none;dashed=1;html=1;strokeColor=#000000;" parent="1" edge="1">
                    <mxGeometry width="50" height="50" relative="1" as="geometry">
                        <mxPoint x="190" y="540" as="sourcePoint"/>
                        <mxPoint x="610" y="540" as="targetPoint"/>
                    </mxGeometry>
                </mxCell>
                <mxCell id="68" value="" style="endArrow=classic;html=1;strokeColor=#000000;fontSize=9;fontColor=#000000;exitX=0.45;exitY=-0.01;exitDx=0;exitDy=0;exitPerimeter=0;" parent="1" source="53" edge="1">
                    <mxGeometry width="50" height="50" relative="1" as="geometry">
                        <mxPoint x="403.75" y="430" as="sourcePoint"/>
                        <mxPoint x="403.75" y="390" as="targetPoint"/>
                    </mxGeometry>
                </mxCell>
                <mxCell id="71" value="" style="endArrow=classic;html=1;strokeColor=#000000;fontSize=9;fontColor=#000000;exitX=0.45;exitY=-0.01;exitDx=0;exitDy=0;exitPerimeter=0;" parent="1" edge="1">
                    <mxGeometry width="50" height="50" relative="1" as="geometry">
                        <mxPoint x="401.9999999999998" y="478.4999999999999" as="sourcePoint"/>
                        <mxPoint x="402" y="460" as="targetPoint"/>
                    </mxGeometry>
                </mxCell>
                <mxCell id="73" value="Network" style="text;html=1;strokeColor=none;fillColor=none;align=center;verticalAlign=middle;whiteSpace=wrap;rounded=0;fontSize=9;fontColor=#000000;" parent="1" vertex="1">
                    <mxGeometry x="190" y="550" width="60" height="30" as="geometry"/>
                </mxCell>
                <mxCell id="74" value="" style="rounded=1;whiteSpace=wrap;html=1;strokeColor=#000000;fontSize=9;fontColor=#000000;fillColor=#FFFFFF;" parent="1" vertex="1">
                    <mxGeometry x="250" y="550" width="340" height="30" as="geometry"/>
                </mxCell>
                <mxCell id="75" value="POST请求" style="rounded=0;whiteSpace=wrap;html=1;strokeColor=#000000;fontSize=9;fontColor=#000000;fillColor=#FFFFFF;" parent="1" vertex="1">
                    <mxGeometry x="315" y="555" width="50" height="20" as="geometry"/>
                </mxCell>
                <mxCell id="76" value="Get请求" style="rounded=0;whiteSpace=wrap;html=1;strokeColor=#000000;fontSize=9;fontColor=#000000;fillColor=#FFFFFF;" parent="1" vertex="1">
                    <mxGeometry x="420" y="555" width="50" height="20" as="geometry"/>
                </mxCell>
                <mxCell id="77" value="" style="endArrow=classic;html=1;strokeColor=#000000;fontSize=9;fontColor=#000000;exitX=0.45;exitY=-0.01;exitDx=0;exitDy=0;exitPerimeter=0;" parent="1" edge="1">
                    <mxGeometry width="50" height="50" relative="1" as="geometry">
                        <mxPoint x="402.9999999999998" y="547.4999999999998" as="sourcePoint"/>
                        <mxPoint x="403" y="529" as="targetPoint"/>
                    </mxGeometry>
                </mxCell>
                <mxCell id="78" value="Axios" style="text;html=1;strokeColor=none;fillColor=none;align=center;verticalAlign=middle;whiteSpace=wrap;rounded=0;fontSize=9;fontColor=#000000;" parent="1" vertex="1">
                    <mxGeometry x="392.5" y="530" width="60" height="30" as="geometry"/>
                </mxCell>
                <mxCell id="79" value="" style="endArrow=none;dashed=1;html=1;strokeColor=#000000;" parent="1" edge="1">
                    <mxGeometry width="50" height="50" relative="1" as="geometry">
                        <mxPoint x="190" y="585" as="sourcePoint"/>
                        <mxPoint x="610" y="585" as="targetPoint"/>
                    </mxGeometry>
                </mxCell>
                <mxCell id="81" value="API" style="text;html=1;strokeColor=none;fillColor=none;align=center;verticalAlign=middle;whiteSpace=wrap;rounded=0;fontSize=9;fontColor=#000000;" parent="1" vertex="1">
                    <mxGeometry x="190" y="590" width="60" height="30" as="geometry"/>
                </mxCell>
                <mxCell id="82" value="" style="rounded=1;whiteSpace=wrap;html=1;strokeColor=#000000;fontSize=9;fontColor=#000000;fillColor=#FFFFFF;" parent="1" vertex="1">
                    <mxGeometry x="250" y="594" width="340" height="36" as="geometry"/>
                </mxCell>
                <mxCell id="83" value="后台接口" style="rounded=0;whiteSpace=wrap;html=1;strokeColor=#000000;fontSize=9;fontColor=#000000;fillColor=#FFFFFF;" parent="1" vertex="1">
                    <mxGeometry x="260.63" y="600.5" width="318.75" height="23" as="geometry"/>
                </mxCell>
                <mxCell id="84" value="" style="endArrow=classic;html=1;strokeColor=#000000;fontSize=9;fontColor=#000000;exitX=0.457;exitY=0.014;exitDx=0;exitDy=0;exitPerimeter=0;" parent="1" source="82" edge="1">
                    <mxGeometry width="50" height="50" relative="1" as="geometry">
                        <mxPoint x="403.9999999999998" y="596.4999999999998" as="sourcePoint"/>
                        <mxPoint x="404" y="578" as="targetPoint"/>
                    </mxGeometry>
                </mxCell>
                <mxCell id="85" value="" style="endArrow=classic;html=1;strokeColor=#000000;" edge="1" parent="1">
                    <mxGeometry width="50" height="50" relative="1" as="geometry">
                        <mxPoint x="415" y="100" as="sourcePoint"/>
                        <mxPoint x="415" y="80" as="targetPoint"/>
                    </mxGeometry>
                </mxCell>
            </root>
        </mxGraphModel>
    </diagram>
</mxfile>